<svg xmlns="http://www.w3.org/2000/svg" viewBox="0 0 1512 982"><path fill="#4F46E5" fill-rule="evenodd" d="M794.465 349.928c.353-3.26.535-6.573.535-9.928 0-50.258-40.742-91-91-91s-91 40.742-91 91c0 .79.01 1.577.03 2.361-13.626 105.92-96.445 190.173-201.668 205.972-2.591-.22-5.214-.333-7.862-.333-50.534 0-91.5 40.966-91.5 91.5s40.966 91.5 91.5 91.5c3.218 0 6.397-.166 9.53-.49 205.778-10.097 370.887-174.922 381.435-380.582ZM495 341c0 49.706-40.294 90-90 90s-90-40.294-90-90 40.294-90 90-90 90 40.294 90 90Zm704 1c0 3.355-.18 6.668-.54 9.929-10.54 205.659-175.65 370.483-381.43 380.581-3.132.324-6.312.49-9.53.49-50.534 0-91.5-40.966-91.5-91.5s40.966-91.5 91.5-91.5c2.648 0 5.271.113 7.862.333 105.223-15.799 188.038-100.052 201.668-205.972-.02-.784-.03-1.572-.03-2.361 0-50.258 40.74-91 91-91s91 40.742 91 91Z"
clip-rule="evenodd"/></svg>
