<?xml version="1.0" standalone="no"?>
<!DOCTYPE svg PUBLIC "-//W3C//DTD SVG 20010904//EN"
 "http://www.w3.org/TR/2001/REC-SVG-20010904/DTD/svg10.dtd">
<svg version="1.0" xmlns="http://www.w3.org/2000/svg"
 width="360.000000pt" height="360.000000pt" viewBox="0 0 360.000000 360.000000"
 preserveAspectRatio="xMidYMid meet">
<metadata>
Created by potrace 1.14, written by Peter Selinger 2001-2017
</metadata>
<g transform="translate(0.000000,360.000000) scale(0.100000,-0.100000)"
fill="#000000" stroke="none">
<path d="M1493 2746 c-90 -29 -161 -86 -210 -166 -29 -49 -42 -94 -48 -173
-13 -153 -87 -338 -190 -476 -35 -46 -160 -164 -214 -200 -67 -46 -209 -116
-251 -125 -14 -3 -41 -10 -60 -16 -19 -6 -69 -13 -110 -16 -97 -6 -160 -27
-218 -72 -76 -58 -104 -95 -131 -174 -60 -178 20 -364 194 -449 107 -51 405
-23 640 61 187 67 370 175 518 305 83 73 104 95 188 195 206 247 331 577 353
929 9 151 -68 287 -199 352 -76 37 -191 48 -262 25z"/>
<path d="M305 2737 c-177 -59 -282 -234 -246 -410 54 -255 354 -374 557 -220
58 45 75 63 108 123 74 135 46 305 -69 422 -59 60 -134 91 -229 95 -49 2 -97
-2 -121 -10z"/>
<path d="M3095 2737 c-99 -33 -176 -100 -223 -192 -23 -47 -31 -79 -37 -160
-16 -195 -146 -447 -301 -584 -149 -132 -360 -227 -522 -235 -117 -7 -191 -37
-262 -107 -175 -173 -125 -472 97 -581 59 -29 77 -33 157 -34 80 -1 201 11
289 30 15 3 39 8 54 12 128 26 359 128 493 217 117 78 150 105 267 224 272
276 438 659 448 1037 4 128 -26 204 -111 289 -61 61 -133 90 -228 94 -48 2
-97 -2 -121 -10z"/>
</g>
</svg>
